<svg width="40" height="40" viewBox="0 0 24 24" fill="none"
     xmlns="http://www.w3.org/2000/svg">
  <path d="M7 17H17C19.2091 17 21 15.2091 21 13C21 10.7909 19.2091 9 17 9H16.7C16.3 6.7 14.4 5 12 5C9.6 5 7.7 6.7 7.3 9H7C4.79086 9 3 10.7909 3 13C3 15.2091 4.79086 17 7 17Z"
        stroke="#FFD369" stroke-width="2" stroke-linecap="round" stroke-linejoin="round"/>
  
  <path d="M9.5 13C10.3 11.8 11.2 11 12 11C12.8 11 13.7 11.8 14.5 13C13.7 14.2 12.8 15 12 15C11.2 15 10.3 14.2 9.5 13Z
           M14.5 13C15.2 12.1 16 11.5 16.8 11.5C17.6 11.5 18.4 12.1 19 13C18.4 13.9 17.6 14.5 16.8 14.5C16 14.5 15.2 13.9 14.5 13Z"
        stroke="#FFD369" stroke-width="2" stroke-linecap="round" stroke-linejoin="round"
        fill="none"/>
</svg>
